<?xml version="1.0" encoding="UTF-8"?>
<svg id="Layer_1" data-name="Layer 1" xmlns="http://www.w3.org/2000/svg" viewBox="0 0 327.33 372.44">
  <defs>
    <style>
      .cls-1 {
        fill: #010101;
      }

      .cls-2 {
        stroke-linecap: round;
        stroke-linejoin: round;
      }

      .cls-2, .cls-3 {
        fill: none;
        stroke: #010101;
        stroke-width: 2px;
      }

      .cls-4 {
        fill: #ed3249;
      }

      .cls-5 {
        fill: #ef4361;
      }

      .cls-6 {
        fill: #fff;
      }

      .cls-7 {
        fill: #a42138;
      }

      .cls-3 {
        stroke-miterlimit: 10;
      }
    </style>
  </defs>
  <g>
    <g>
      <path class="cls-4" d="M197.22,208.49l79.5,36.08c-23.88,2.36-48.92,3.2-77.68-.78-15.39-2.13-31.84-5.64-49.75-11.06l-96.21-33.63-8.66-3.03c-26.17-11.92-39.78-26.79-43.42-43.97l78.37,18.04c42.5-48.37,84.58-92.62,125.74-127.99C246.17,23.01,286.64,8.71,326.33.99c-43.22,24.22-103.21,87.88-95.28,86.27-15.63,43.81-27.75,84.89-33.83,121.22h0Z"/>
      <path class="cls-4" d="M213.55,345.21c3.13,3.68,4.53,8.48,5.57,13.43-38.72,5.3-77.79,9.94-117.84,12.81-48.41-1.23-84.99-15.28-100.29-52.44,8.31-13.87,32.88-24.13,35.22-33.99l-10.1-73.93c14.78,32.71,41.89,48.83,72.07,60.84.06.01.11.03.17.03,34.73-1.45,68.14-10.79,100.36-27.22.07-.03.13-.04.2-.04.3,0,.52.34.32.63l-45.45,63.42c-.2.28.01.66.35.63,22.33-1.31,42.05,11.07,59.41,35.84h0Z"/>
      <path class="cls-1" d="M199.04,243.79l-.13.89c-.07,0-.13.01-.2.04-32.22,16.43-65.63,25.77-100.36,27.22-.06,0-.11-.01-.17-.03-30.17-12-57.28-28.13-72.07-60.84-.07-.14-.06-.31.04-.42,5.35-7.04,14.15-11.04,26.91-11.55l96.21,33.63c17.91,5.42,34.36,8.93,49.75,11.06h.02Z"/>
    </g>
    <g>
      <path class="cls-3" d="M199.04,243.79c-15.39-2.13-31.84-5.64-49.75-11.06l-96.21-33.63"/>
      <path class="cls-2" d="M53.08,199.11l-8.66-3.03c-26.17-11.92-39.78-26.79-43.42-43.97l78.37,18.04c42.5-48.37,84.58-92.62,125.74-127.99C246.17,23.02,286.64,8.72,326.33,1c-43.22,24.22-103.21,87.88-95.28,86.27-15.63,43.81-27.75,84.89-33.83,121.22l79.5,36.08c-23.88,2.36-48.92,3.2-77.68-.78"/>
      <path class="cls-2" d="M26.12,211.08l10.1,73.93c-2.34,9.86-26.91,20.13-35.22,33.99,15.3,37.17,51.88,51.22,100.29,52.44,40.05-2.86,79.12-7.5,117.84-12.81-1.04-4.95-2.44-9.75-5.57-13.43-17.36-24.77-37.08-37.15-59.41-35.84-.34.03-.55-.35-.35-.63l45.45-63.42c.2-.3-.03-.63-.32-.63-.07,0-.13.01-.2.04-32.22,16.43-65.63,25.77-100.36,27.22-.06,0-.11-.01-.17-.03-30.17-12-57.28-28.13-72.07-60.84-.07-.14-.06-.31.04-.42,5.35-7.04,14.15-11.04,26.91-11.55"/>
    </g>
  </g>
  <g>
    <path class="cls-6" d="M67.41,213.58c-6.1.19-10.61,8.33-10.48,15.02.16,7.94,6.94,16.09,12.92,15.37,6.2-.75,10.58-10.93,8.73-18.86-1.21-5.17-5.61-11.7-11.17-11.52h0Z"/>
    <path class="cls-6" d="M114.2,230.34c-8.33.43-14.45,9.13-12.57,17.11,1.49,6.33,7.85,11.4,15.02,10.48,7.07-.91,11.98-7.26,11.87-13.92-.13-7.65-6.86-14.05-14.32-13.66h0Z"/>
  </g>
  <path class="cls-7" d="M149.73,310.37c-19.41,19.97-36.93,10.02-70.72,12.71l103.68,23.11c13.63,2.24,12.95-24.94-19.69-31.65-4.8-.99-11.83,1.29-13.27-4.17Z"/>
  <path class="cls-7" d="M248.73,240.05c-51.79-3.64-118.98-17.13-138.67-32.6l95-137.16c10.1-8.35,42.58-28.04,79.52-50.29.57-.34,1.18.41.7.87-22.99,22.19-48.48,45.87-64.22,61.86-16,44.78-27.94,90.32-30.92,130.84,19.53,16.75,45.06,18.35,58.59,26.48h0Z"/>
  <path class="cls-5" d="M51.93,169.02c19.23,8.23,20.41,9.42,30.34,5.85,12.86-9.08,38.03-38.14,57.78-63.16l-48.88,75.6c-1.32,2.21-4.14,3-6.41,1.79l-32.83-20.07h0Z"/>
  <path class="cls-5" d="M39.71,255.37c4.6,14.06,9.3,28.27,9.07,35.1-3.05,5.52-11.89,11.47-22.52,17.55,14.09-5.65,27.97-11.04,35.39-9.07-3.91-14.06-11.99-28.69-21.94-43.58h0Z"/>
</svg>