<?xml version="1.0" encoding="UTF-8"?>
<svg id="Layer_1" data-name="Layer 1" xmlns="http://www.w3.org/2000/svg" viewBox="0 0 428.54 110.38">
  <defs>
    <style>
      .cls-1 {
        fill: #010101;
      }

      .cls-2 {
        fill: #ed3249;
      }

      .cls-3 {
        fill: #ef4361;
      }

      .cls-4 {
        fill: #fff;
      }

      .cls-5 {
        stroke-miterlimit: 10;
      }

      .cls-5, .cls-6 {
        fill: none;
        stroke: #010101;
        stroke-width: 2px;
      }

      .cls-6 {
        stroke-linecap: round;
        stroke-linejoin: round;
      }

      .cls-7 {
        fill: #a42138;
      }
    </style>
  </defs>
  <g>
    <g>
      <path class="cls-2" d="M58.4,61.7l23.26,10.56c-6.99.69-14.31.94-22.72-.23-4.5-.62-9.31-1.65-14.55-3.24l-28.15-9.84-2.53-.88c-7.66-3.49-11.64-7.84-12.7-12.86l22.93,5.28c12.43-14.15,24.74-27.1,36.79-37.45,12.01-5.6,23.85-9.78,35.47-12.04-12.64,7.09-30.2,25.71-27.88,25.24-4.57,12.82-8.12,24.83-9.9,35.47Z"/>
      <path class="cls-2" d="M58.99,72.48l-13.3,18.55c-.06.08,0,.19.11.19,6.53-.38,12.3,3.24,17.38,10.49.92,1.08,1.32,2.48,1.63,3.93-11.32,1.55-22.76,2.91-34.47,3.75-14.16-.36-24.87-4.47-29.34-15.34,2.43-4.06,9.62-7.06,10.3-9.95l-2.96-21.63c4.33,9.57,12.26,14.29,21.08,17.8.02,0,.03,0,.05,0,10.16-.43,19.93-3.16,29.36-7.96.02,0,.04-.01.06-.01.09,0,.15.1.09.19Z"/>
      <path class="cls-1" d="M58.84,72.31c-9.43,4.81-19.2,7.54-29.36,7.96-.02,0-.04,0-.05,0-8.82-3.51-16.75-8.23-21.08-17.8-.02-.04-.01-.09.02-.12,1.56-2.06,4.13-3.23,7.87-3.38h0s28.15,9.84,28.15,9.84c5.24,1.58,10.05,2.61,14.55,3.24l-.04.26s-.04,0-.06.01Z"/>
    </g>
    <g>
      <path class="cls-5" d="M58.94,72.03c-4.5-.62-9.31-1.65-14.55-3.24l-28.15-9.84"/>
      <path class="cls-6" d="M16.23,58.96l-2.53-.88c-7.66-3.49-11.64-7.84-12.7-12.86l22.93,5.28c12.43-14.15,24.74-27.1,36.79-37.45,12.01-5.6,23.85-9.78,35.47-12.04-12.64,7.09-30.2,25.71-27.88,25.24-4.57,12.82-8.12,24.83-9.9,35.47l23.26,10.56c-6.99.69-14.31.94-22.72-.23"/>
      <path class="cls-6" d="M8.35,62.46l2.96,21.63c-.69,2.88-7.87,5.89-10.3,9.95,4.47,10.87,15.18,14.98,29.34,15.34,11.71-.84,23.15-2.2,34.47-3.75-.31-1.45-.71-2.85-1.63-3.93-5.08-7.25-10.85-10.87-17.38-10.49-.1,0-.17-.1-.11-.19l13.3-18.55c.06-.09,0-.19-.09-.19-.02,0-.04,0-.06.01-9.43,4.81-19.2,7.54-29.36,7.96-.02,0-.04,0-.05,0-8.82-3.51-16.75-8.23-21.08-17.8-.02-.04-.01-.09.02-.12,1.56-2.06,4.13-3.23,7.87-3.38"/>
    </g>
  </g>
  <g>
    <path class="cls-4" d="M20.43,63.19c-1.78.06-3.11,2.44-3.06,4.39.05,2.32,2.03,4.71,3.78,4.5,1.81-.22,3.1-3.2,2.55-5.52-.35-1.51-1.64-3.42-3.27-3.37Z"/>
    <path class="cls-4" d="M34.12,68.1c-2.44.13-4.23,2.67-3.68,5.01.44,1.85,2.3,3.34,4.39,3.06,2.07-.27,3.51-2.12,3.47-4.07-.04-2.24-2.01-4.11-4.19-4Z"/>
  </g>
  <g>
    <path class="cls-1" d="M96.88,51.05h-2.95v-8.57h4.46v8.57h-1.51ZM96.88,59.62h-2.95v-8.57h4.46v8.57h-1.51ZM96.88,68.19h-2.95v-8.57h4.46v8.57h-1.51ZM96.88,76.75h-2.95v-8.57h4.46v8.57h-1.51ZM96.88,85.32h-2.95v-8.57h4.46v8.57h-1.51ZM96.88,93.89h-2.95v-8.57h4.46v8.57h-1.51ZM96.88,102.45h-2.95v-8.57h4.46v8.57h-1.51ZM101.34,51.05h-2.95v-8.57h4.46v8.57h-1.51ZM101.34,76.75h-2.95v-8.57h4.46v8.57h-1.51ZM101.34,102.45h-2.95v-8.57h4.46v8.57h-1.51ZM105.8,51.05h-2.95v-8.57h4.46v8.57h-1.51ZM105.8,76.75h-2.95v-8.57h4.46v8.57h-1.51ZM105.8,102.45h-2.95v-8.57h4.46v8.57h-1.51ZM110.26,51.05h-2.95v-8.57h4.46v8.57h-1.51ZM110.26,76.75h-2.95v-8.57h4.46v8.57h-1.51ZM110.26,102.45h-2.95v-8.57h4.46v8.57h-1.51ZM114.72,59.62h-2.95v-8.57h4.46v8.57h-1.51ZM114.72,68.19h-2.95v-8.57h4.46v8.57h-1.51ZM114.72,85.32h-2.95v-8.57h4.46v8.57h-1.51ZM114.72,93.89h-2.95v-8.57h4.46v8.57h-1.51Z"/>
    <path class="cls-1" d="M128.11,68.19h-2.95v-8.57h4.46v8.57h-1.51ZM128.11,102.45h-2.95v-8.57h4.46v8.57h-1.51ZM132.57,68.19h-2.95v-8.57h4.46v8.57h-1.51ZM132.57,102.45h-2.95v-8.57h4.46v8.57h-1.51ZM137.03,42.49h-2.95v-8.57h4.46v8.57h-1.51ZM137.03,51.05h-2.95v-8.57h4.46v8.57h-1.51ZM137.03,68.19h-2.95v-8.57h4.46v8.57h-1.51ZM137.03,76.75h-2.95v-8.57h4.46v8.57h-1.51ZM137.03,85.32h-2.95v-8.57h4.46v8.57h-1.51ZM137.03,93.89h-2.95v-8.57h4.46v8.57h-1.51ZM137.03,102.45h-2.95v-8.57h4.46v8.57h-1.51ZM141.49,102.45h-2.95v-8.57h4.46v8.57h-1.51ZM145.95,102.45h-2.95v-8.57h4.46v8.57h-1.51Z"/>
    <path class="cls-1" d="M159.34,68.19h-2.95v-8.57h4.46v8.57h-1.51ZM163.8,51.05h-2.95v-8.57h4.46v8.57h-1.51ZM163.8,59.62h-2.95v-8.57h4.46v8.57h-1.51ZM163.8,68.19h-2.95v-8.57h4.46v8.57h-1.51ZM163.8,76.75h-2.95v-8.57h4.46v8.57h-1.51ZM163.8,85.32h-2.95v-8.57h4.46v8.57h-1.51ZM163.8,93.89h-2.95v-8.57h4.46v8.57h-1.51ZM168.26,68.19h-2.95v-8.57h4.46v8.57h-1.51ZM168.26,102.45h-2.95v-8.57h4.46v8.57h-1.51ZM172.72,68.19h-2.95v-8.57h4.46v8.57h-1.51ZM172.72,102.45h-2.95v-8.57h4.46v8.57h-1.51ZM177.18,68.19h-2.95v-8.57h4.46v8.57h-1.51ZM177.18,93.89h-2.95v-8.57h4.46v8.57h-1.51Z"/>
    <path class="cls-1" d="M190.57,51.05h-2.95v-8.57h4.46v8.57h-1.51ZM190.57,59.62h-2.95v-8.57h4.46v8.57h-1.51ZM190.57,68.19h-2.95v-8.57h4.46v8.57h-1.51ZM190.57,76.75h-2.95v-8.57h4.46v8.57h-1.51ZM190.57,85.32h-2.95v-8.57h4.46v8.57h-1.51ZM190.57,93.89h-2.95v-8.57h4.46v8.57h-1.51ZM190.57,102.45h-2.95v-8.57h4.46v8.57h-1.51ZM195.03,51.05h-2.95v-8.57h4.46v8.57h-1.51ZM195.03,76.75h-2.95v-8.57h4.46v8.57h-1.51ZM195.03,102.45h-2.95v-8.57h4.46v8.57h-1.51ZM199.49,51.05h-2.95v-8.57h4.46v8.57h-1.51ZM199.49,76.75h-2.95v-8.57h4.46v8.57h-1.51ZM199.49,102.45h-2.95v-8.57h4.46v8.57h-1.51ZM203.95,51.05h-2.95v-8.57h4.46v8.57h-1.51ZM203.95,76.75h-2.95v-8.57h4.46v8.57h-1.51ZM203.95,102.45h-2.95v-8.57h4.46v8.57h-1.51ZM208.42,59.62h-2.95v-8.57h4.46v8.57h-1.51ZM208.42,68.19h-2.95v-8.57h4.46v8.57h-1.51ZM208.42,85.32h-2.95v-8.57h4.46v8.57h-1.51ZM208.42,93.89h-2.95v-8.57h4.46v8.57h-1.51Z"/>
    <path class="cls-1" d="M221.8,68.19h-2.95v-8.57h4.46v8.57h-1.51ZM221.8,76.75h-2.95v-8.57h4.46v8.57h-1.51ZM221.8,85.32h-2.95v-8.57h4.46v8.57h-1.51ZM221.8,93.89h-2.95v-8.57h4.46v8.57h-1.51ZM226.26,102.45h-2.95v-8.57h4.46v8.57h-1.51ZM230.72,102.45h-2.95v-8.57h4.46v8.57h-1.51ZM235.18,102.45h-2.95v-8.57h4.46v8.57h-1.51ZM239.65,68.19h-2.95v-8.57h4.46v8.57h-1.51ZM239.65,76.75h-2.95v-8.57h4.46v8.57h-1.51ZM239.65,85.32h-2.95v-8.57h4.46v8.57h-1.51ZM239.65,93.89h-2.95v-8.57h4.46v8.57h-1.51Z"/>
    <path class="cls-1" d="M253.03,68.19h-2.95v-8.57h4.46v8.57h-1.51ZM253.03,102.45h-2.95v-8.57h4.46v8.57h-1.51ZM257.49,68.19h-2.95v-8.57h4.46v8.57h-1.51ZM257.49,76.75h-2.95v-8.57h4.46v8.57h-1.51ZM257.49,85.32h-2.95v-8.57h4.46v8.57h-1.51ZM257.49,93.89h-2.95v-8.57h4.46v8.57h-1.51ZM257.49,102.45h-2.95v-8.57h4.46v8.57h-1.51ZM261.95,76.75h-2.95v-8.57h4.46v8.57h-1.51ZM261.95,102.45h-2.95v-8.57h4.46v8.57h-1.51ZM266.41,68.19h-2.95v-8.57h4.46v8.57h-1.51ZM270.88,68.19h-2.95v-8.57h4.46v8.57h-1.51ZM270.88,76.75h-2.95v-8.57h4.46v8.57h-1.51Z"/>
    <path class="cls-1" d="M284.26,76.75h-2.95v-8.57h4.46v8.57h-1.51ZM284.26,85.32h-2.95v-8.57h4.46v8.57h-1.51ZM284.26,93.89h-2.95v-8.57h4.46v8.57h-1.51ZM284.26,102.45h-2.95v-8.57h4.46v8.57h-1.51ZM288.72,68.19h-2.95v-8.57h4.46v8.57h-1.51ZM293.18,68.19h-2.95v-8.57h4.46v8.57h-1.51ZM297.64,68.19h-2.95v-8.57h4.46v8.57h-1.51ZM302.11,76.75h-2.95v-8.57h4.46v8.57h-1.51ZM302.11,85.32h-2.95v-8.57h4.46v8.57h-1.51ZM302.11,93.89h-2.95v-8.57h4.46v8.57h-1.51ZM302.11,102.45h-2.95v-8.57h4.46v8.57h-1.51Z"/>
    <path class="cls-1" d="M315.49,76.75h-2.95v-8.57h4.46v8.57h-1.51ZM315.49,85.32h-2.95v-8.57h4.46v8.57h-1.51ZM315.49,93.89h-2.95v-8.57h4.46v8.57h-1.51ZM319.95,68.19h-2.95v-8.57h4.46v8.57h-1.51ZM319.95,85.32h-2.95v-8.57h4.46v8.57h-1.51ZM319.95,102.45h-2.95v-8.57h4.46v8.57h-1.51ZM324.41,68.19h-2.95v-8.57h4.46v8.57h-1.51ZM324.41,85.32h-2.95v-8.57h4.46v8.57h-1.51ZM324.41,102.45h-2.95v-8.57h4.46v8.57h-1.51ZM328.88,68.19h-2.95v-8.57h4.46v8.57h-1.51ZM328.88,85.32h-2.95v-8.57h4.46v8.57h-1.51ZM328.88,102.45h-2.95v-8.57h4.46v8.57h-1.51ZM333.34,76.75h-2.95v-8.57h4.46v8.57h-1.51ZM333.34,85.32h-2.95v-8.57h4.46v8.57h-1.51ZM333.34,102.45h-2.95v-8.57h4.46v8.57h-1.51Z"/>
    <path class="cls-1" d="M346.72,68.19h-2.95v-8.57h4.46v8.57h-1.51ZM346.72,102.45h-2.95v-8.57h4.46v8.57h-1.51ZM351.18,68.19h-2.95v-8.57h4.46v8.57h-1.51ZM351.18,76.75h-2.95v-8.57h4.46v8.57h-1.51ZM351.18,85.32h-2.95v-8.57h4.46v8.57h-1.51ZM351.18,93.89h-2.95v-8.57h4.46v8.57h-1.51ZM351.18,102.45h-2.95v-8.57h4.46v8.57h-1.51ZM355.64,76.75h-2.95v-8.57h4.46v8.57h-1.51ZM355.64,102.45h-2.95v-8.57h4.46v8.57h-1.51ZM360.11,68.19h-2.95v-8.57h4.46v8.57h-1.51ZM364.57,68.19h-2.95v-8.57h4.46v8.57h-1.51ZM364.57,76.75h-2.95v-8.57h4.46v8.57h-1.51Z"/>
    <path class="cls-1" d="M377.95,59.62h-2.95v-8.57h4.46v8.57h-1.51ZM377.95,68.19h-2.95v-8.57h4.46v8.57h-1.51ZM377.95,102.45h-2.95v-8.57h4.46v8.57h-1.51ZM382.41,51.05h-2.95v-8.57h4.46v8.57h-1.51ZM382.41,93.89h-2.95v-8.57h4.46v8.57h-1.51ZM382.41,102.45h-2.95v-8.57h4.46v8.57h-1.51ZM386.88,51.05h-2.95v-8.57h4.46v8.57h-1.51ZM386.88,85.32h-2.95v-8.57h4.46v8.57h-1.51ZM386.88,102.45h-2.95v-8.57h4.46v8.57h-1.51ZM391.34,51.05h-2.95v-8.57h4.46v8.57h-1.51ZM391.34,76.75h-2.95v-8.57h4.46v8.57h-1.51ZM391.34,102.45h-2.95v-8.57h4.46v8.57h-1.51ZM395.8,59.62h-2.95v-8.57h4.46v8.57h-1.51ZM395.8,68.19h-2.95v-8.57h4.46v8.57h-1.51ZM395.8,102.45h-2.95v-8.57h4.46v8.57h-1.51Z"/>
    <path class="cls-1" d="M409.18,59.62h-2.95v-8.57h4.46v8.57h-1.51ZM409.18,68.19h-2.95v-8.57h4.46v8.57h-1.51ZM409.18,76.75h-2.95v-8.57h4.46v8.57h-1.51ZM409.18,85.32h-2.95v-8.57h4.46v8.57h-1.51ZM409.18,93.89h-2.95v-8.57h4.46v8.57h-1.51ZM413.64,51.05h-2.95v-8.57h4.46v8.57h-1.51ZM413.64,102.45h-2.95v-8.57h4.46v8.57h-1.51ZM418.11,51.05h-2.95v-8.57h4.46v8.57h-1.51ZM418.11,102.45h-2.95v-8.57h4.46v8.57h-1.51ZM422.57,51.05h-2.95v-8.57h4.46v8.57h-1.51ZM422.57,102.45h-2.95v-8.57h4.46v8.57h-1.51ZM427.03,59.62h-2.95v-8.57h4.46v8.57h-1.51ZM427.03,68.19h-2.95v-8.57h4.46v8.57h-1.51ZM427.03,76.75h-2.95v-8.57h4.46v8.57h-1.51ZM427.03,85.32h-2.95v-8.57h4.46v8.57h-1.51ZM427.03,93.89h-2.95v-8.57h4.46v8.57h-1.51Z"/>
  </g>
  <path class="cls-7" d="M44.51,91.51c-5.68,5.84-10.81,2.93-20.69,3.72l30.33,6.76c3.99.66,3.79-7.3-5.76-9.26-1.41-.29-3.46.38-3.88-1.22Z"/>
  <path class="cls-7" d="M73.48,70.94c-15.15-1.07-34.81-5.01-40.57-9.54l27.79-40.13c2.96-2.44,12.46-8.2,23.27-14.71.17-.1.34.12.2.25-6.73,6.49-14.18,13.42-18.79,18.1-4.68,13.1-8.17,26.42-9.05,38.28,5.71,4.9,13.18,5.37,17.14,7.75Z"/>
  <path class="cls-3" d="M15.9,50.16c5.62,2.41,5.97,2.76,8.88,1.71,3.76-2.66,11.12-11.16,16.9-18.48l-14.3,22.12c-.39.65-1.21.88-1.88.52l-9.61-5.87Z"/>
  <path class="cls-3" d="M12.32,75.42c1.35,4.11,2.72,8.27,2.65,10.27-.89,1.62-3.48,3.36-6.59,5.13,4.12-1.65,8.18-3.23,10.35-2.65-1.14-4.11-3.51-8.39-6.42-12.75Z"/>
</svg>